<svg version="1.2" xmlns="http://www.w3.org/2000/svg" viewBox="0 0 20 20" width="20" height="20">
	
	<path id="Layer" fill="#3a3a55" d="m12.6 12l-2-2v9.4h-1.2v-9.4l-2 2-0.9-0.9 3.5-3.5 3.5 3.5z"/>
	<path id="Layer" fill="#3a3a55" d="m19.4 10.7c0 1.2-0.5 2.4-1.3 3.2q-0.6 0.7-1.4 1.1-0.8 0.3-1.7 0.3h-2.8v-1.2h2.8c1.7 0 3.1-1.5 3.1-3.4 0-1.8-1.3-3.2-3.1-3.2h-0.6v-1.2c0-1.2-0.5-2.3-1.3-3.1-0.8-0.9-1.9-1.3-3.1-1.3-1.2 0-2.3 0.4-3.1 1.3-0.8 0.8-1.3 1.9-1.3 3.1v1.2h-0.6c-1.7 0.1-3.1 1.5-3.1 3.2 0 1.8 1.6 3.4 3.4 3.4h2.5v1.2h-2.5c-1.2 0-2.4-0.5-3.3-1.4-0.9-0.8-1.4-2-1.4-3.2q0-0.9 0.4-1.7 0.3-0.8 0.9-1.4c0.7-0.6 1.5-1.1 2.5-1.3 0-3.2 2.5-5.7 5.6-5.7 3.1 0 5.6 2.5 5.6 5.7 2.2 0.3 3.8 2.1 3.8 4.4z"/>
</svg>