<svg version="1.2" xmlns="http://www.w3.org/2000/svg" viewBox="0 0 24 28" width="24" height="28">
	<path fill= "none" stroke= "#3a3a55" stroke-linecap= "round" stroke-linejoin= "round" stroke-width= "1.5"  d="m21.2 10.8c0 0-0.7 8.5-1.1 12-0.2 1.7-1.3 2.7-3 2.7q-4.9 0.1-9.8 0c-1.6 0-2.6-1-2.8-2.7-0.4-3.6-1.1-12-1.1-12"/>
	<path fill= "none" stroke= "#3a3a55" stroke-linecap= "round" stroke-linejoin= "round" stroke-width= "1.5"  d="m22.9 6.8h-21.2"/>
	<path fill= "none" stroke= "#3a3a55" stroke-linecap= "round" stroke-linejoin= "round" stroke-width= "1.5"  d="m5.8 6.8c1 0 1.8-0.7 2-1.7l0.3-1.5c0.2-0.7 0.8-1.2 1.5-1.2h5.3c0.8 0 1.4 0.5 1.6 1.2l0.3 1.5c0.2 1 1 1.7 2 1.7"/>
</svg>