<svg width="16" height="20" viewBox="0 0 16 20" fill="none" xmlns="http://www.w3.org/2000/svg">
<path d="M14.4999 0.25C14.7652 0.250035 15.0213 0.347453 15.2196 0.523775C15.4179 0.700097 15.5446 0.943061 15.5756 1.20658L15.5832 1.33333V18.6667C15.5829 18.9428 15.4771 19.2084 15.2876 19.4092C15.098 19.6099 14.839 19.7308 14.5633 19.7469C14.2877 19.7631 14.0163 19.6734 13.8045 19.4962C13.5928 19.319 13.4567 19.0676 13.4241 18.7934L13.4165 18.6667V1.33333C13.4165 1.04602 13.5307 0.770465 13.7338 0.567301C13.937 0.364137 14.2125 0.25 14.4999 0.25ZM0.733934 0.567417C0.920476 0.380892 1.16867 0.268841 1.43195 0.252287C1.69522 0.235732 1.9555 0.315811 2.16393 0.4775L2.26577 0.567417L10.9324 9.23409C11.119 9.42063 11.231 9.66882 11.2476 9.9321C11.2641 10.1954 11.184 10.4556 11.0224 10.6641L10.9324 10.7659L2.26577 19.4326C2.07081 19.6269 1.80921 19.7397 1.5341 19.7481C1.25899 19.7565 0.990994 19.6599 0.784548 19.4778C0.578102 19.2958 0.448686 19.042 0.422584 18.768C0.396483 18.494 0.475654 18.2203 0.644017 18.0026L0.733934 17.9008L8.63468 10L0.733934 2.09925C0.53084 1.8961 0.416748 1.62059 0.416748 1.33333C0.416748 1.04607 0.53084 0.770572 0.733934 0.567417Z" fill="#F6F6F6"/>
</svg>
