<svg version="1.2" xmlns="http://www.w3.org/2000/svg" viewBox="0 0 26 26" width="26" height="26">

	<path fill= "none" stroke= "#3a3a55" stroke-linecap= "round" stroke-linejoin= "round" stroke-width= "1.5" d="m1.7 6.1c0-3.3 0.1-4.3 4.4-4.3 4.4 0 4.4 1 4.4 4.3 0 3.3 0 4.4-4.4 4.4-4.4 0-4.4-1.1-4.4-4.4z"/>
	<path fill= "none" stroke= "#3a3a55" stroke-linecap= "round" stroke-linejoin= "round" stroke-width= "1.5" d="m15.5 6.1c0-3.3 0-4.3 4.4-4.3 4.3 0 4.3 1 4.3 4.3 0 3.3 0.1 4.4-4.3 4.4-4.4 0-4.4-1.1-4.4-4.4z"/>
	<path fill= "none" stroke= "#3a3a55" stroke-linecap= "round" stroke-linejoin= "round" stroke-width= "1.5" d="m1.7 19.9c0-3.3 0.1-4.4 4.4-4.4 4.4 0 4.4 1.1 4.4 4.4 0 3.3 0 4.3-4.4 4.3-4.4 0-4.4-1-4.4-4.3z"/>
	<path fill= "none" stroke= "#3a3a55" stroke-linecap= "round" stroke-linejoin= "round" stroke-width= "1.5" d="m15.5 19.9c0-3.3 0-4.4 4.4-4.4 4.3 0 4.3 1.1 4.3 4.4 0 3.3 0.1 4.3-4.3 4.3-4.4 0-4.4-1-4.4-4.3z"/>
</svg>