<svg version="1.2" xmlns="http://www.w3.org/2000/svg" viewBox="0 0 39 39" width="39" height="39">
	<title>Frame 167-svg</title>

	<path id="Layer" fill = "none" stroke = "#3a3a55" stroke-linecap = "round" stroke-linejoin= "round" stroke-width= "2" d="m17.2 12.5l-7.3-4.2 4.2-7.3m-2.7 6.8c2.7-1.6 5.9-2.3 9.1-1.9 3.2 0.4 6.2 1.9 8.4 4.2 2.2 2.3 3.6 5.3 3.9 8.5 0.3 3.2-0.6 6.4-2.4 9.1-1.8 2.6-4.4 4.6-7.5 5.5-3.1 1-6.4 0.9-9.4-0.3-3-1.2-5.5-3.3-7.1-6.1-1.6-2.8-2.2-6-1.7-9.2"/>
	<path id="Layer" fill = "#3a3a55" d="m14.6 16.2h1v8.4h-1.3v-6.4h-1.5v-0.9q0.7-0.1 1.1-0.4 0.4-0.2 0.7-0.7zm6.3 2.8q1.2 0 2 0.8 0.9 0.8 0.9 2 0 1.3-0.9 2.1-0.8 0.8-2.1 0.8-0.6 0-1.1-0.2-0.6-0.1-0.9-0.3-0.3-0.2-0.6-0.4-0.2-0.2-0.3-0.3l-0.1-0.1 0.8-0.9q0 0.1 0.1 0.1 0 0.1 0.2 0.3 0.2 0.1 0.5 0.3 0.2 0.1 0.6 0.2 0.3 0.1 0.8 0.1 0.7 0 1.2-0.5 0.4-0.5 0.4-1.2 0-0.7-0.4-1.2-0.5-0.5-1.2-0.5-0.6 0-1 0.2-0.4 0.2-0.6 0.4l-0.1 0.2h-1l0.3-4.7h4.8v1.2h-3.6l-0.2 1.9q0.5-0.3 1.5-0.3z"/>
</svg>