<svg width="39" height="39" viewBox="0 0 39 39" fill="none" xmlns="http://www.w3.org/2000/svg">
<path fill-rule="evenodd" clip-rule="evenodd" d="M38.33 19.165C38.33 29.7495 29.7495 38.33 19.165 38.33C8.58046 38.33 0 29.7495 0 19.165C0 8.58046 8.58046 0 19.165 0C29.7495 0 38.33 8.58046 38.33 19.165ZM12.2658 13.7988C12.2658 12.5287 13.2954 11.499 14.5656 11.499C15.8357 11.499 16.8654 12.5287 16.8654 13.7988V24.5312C16.8654 25.8014 15.8357 26.831 14.5656 26.831C13.2954 26.831 12.2658 25.8014 12.2658 24.5312V13.7988ZM23.7648 11.499C22.4947 11.499 21.465 12.5287 21.465 13.7988V24.5312C21.465 25.8014 22.4947 26.831 23.7648 26.831C25.035 26.831 26.0646 25.8014 26.0646 24.5312V13.7988C26.0646 12.5287 25.035 11.499 23.7648 11.499Z" fill="white" fill-opacity="0.8"/>
</svg>
