<svg version="1.2" xmlns="http://www.w3.org/2000/svg" viewBox="0 0 29 27" width="29" height="27">
	<path   d="m26.4 17.9h-5.1c-2.4 0-4.3-2-4.3-4.3 0-2.4 1.9-4.3 4.3-4.3h5.1c0.5 0 0.9 0.4 0.9 0.9 0 0.5-0.4 0.9-0.9 0.9h-5.1c-1.3 0-2.4 1.1-2.4 2.5 0 1.3 1.1 2.4 2.4 2.4h5.1c0.5 0 0.9 0.4 0.9 0.9 0 0.6-0.4 1-0.9 1z"/>
	<path   d="m21.9 14.4h-0.4c-0.5 0-1-0.4-1-0.9 0-0.5 0.5-0.9 1-0.9h0.4c0.5 0 0.9 0.4 0.9 0.9 0 0.5-0.4 0.9-0.9 0.9z"/>
	<path  d="m1.5 8.7c0-3.9 3.1-7 7-7h11.8c3.9 0 7 3.1 7 7v10c0 3.9-3.1 7-7 7h-11.8c-3.9 0-7-3.1-7-7zm1.9 9.2c0 3.3 2.7 6 6 6h10c3.3 0 6-2.7 6-6v-8.2c0-3.3-2.7-6-6-6h-10c-3.3 0-6 2.7-6 6z"/>
	<path   d="m14.9 9.3h-6.8c-0.5 0-0.9-0.4-0.9-0.9 0-0.6 0.4-1 0.9-1h6.8c0.5 0 0.9 0.4 0.9 1 0 0.5-0.4 0.9-0.9 0.9z"/>
	<path   d="m16.2 109.6h9"/>
</svg>